<?xml version="1.0" encoding="UTF-8" standalone="no"?>
<svg
   xmlns:dc="http://purl.org/dc/elements/1.1/"
   xmlns:cc="http://creativecommons.org/ns#"
   xmlns:rdf="http://www.w3.org/1999/02/22-rdf-syntax-ns#"
   xmlns:svg="http://www.w3.org/2000/svg"
   xmlns="http://www.w3.org/2000/svg"
   xmlns:sodipodi="http://sodipodi.sourceforge.net/DTD/sodipodi-0.dtd"
   xmlns:inkscape="http://www.inkscape.org/namespaces/inkscape"
   width="210mm"
   height="297mm"
   viewBox="0 0 210 297"
   version="1.1"
   id="svg8"
   sodipodi:docname="logo_clockapp_skeleton.svg"
   inkscape:version="1.0 (4035a4f, 2020-05-01)">
  <defs
     id="defs2" />
  <sodipodi:namedview
     id="base"
     pagecolor="#ffffff"
     bordercolor="#666666"
     borderopacity="1.0"
     inkscape:pageopacity="0.0"
     inkscape:pageshadow="2"
     inkscape:zoom="0.26957006"
     inkscape:cx="191.53453"
     inkscape:cy="124.96242"
     inkscape:document-units="mm"
     inkscape:current-layer="layer1"
     inkscape:document-rotation="0"
     showgrid="true"
     inkscape:window-width="1440"
     inkscape:window-height="900"
     inkscape:window-x="0"
     inkscape:window-y="54"
     inkscape:window-maximized="0"
     showguides="true"
     inkscape:object-paths="false"
     inkscape:snap-nodes="true"
     inkscape:snap-intersection-paths="false"
     inkscape:object-nodes="false"
     inkscape:snap-grids="true"
     inkscape:guide-bbox="true" />
  <metadata
     id="metadata5">
    <rdf:RDF>
      <cc:Work
         rdf:about="">
        <dc:format>image/svg+xml</dc:format>
        <dc:type
           rdf:resource="http://purl.org/dc/dcmitype/StillImage" />
        <dc:title></dc:title>
      </cc:Work>
    </rdf:RDF>
  </metadata>
  <g
     inkscape:label="Layer 1"
     inkscape:groupmode="layer"
     id="layer1">
    <path
       id="path1663"
       style="opacity:1;fill:#ff5555;fill-opacity:1;stroke:#ff5555;stroke-width:0.94224903;stroke-miterlimit:4;stroke-dasharray:none;stroke-opacity:1;stroke-dashoffset:0"
       d="M 102.1384,43.809365 A 82.028697,84.530277 0 0 0 20.109519,128.3393 82.028697,84.530277 0 0 0 73.768821,207.65353 L 102.31894,93.043341 130.57768,207.62665 A 82.028697,84.530277 0 0 0 184.16727,128.3393 82.028697,84.530277 0 0 0 102.1384,43.809365 Z" />
    <circle
       r="62.117775"
       cy="137.76669"
       cx="102.1384"
       id="circle1817"
       style="opacity:1;fill:#ff5555;fill-opacity:1;stroke:#ff5555;stroke-width:0.764453;stroke-miterlimit:4;stroke-dasharray:none;stroke-opacity:1" />
    <path
       transform="scale(0.26458333)"
       d="M 401.94336 274.95117 A 199.54918 201.10775 0 0 1 550.53906 356.35352 L 551.17383 355.88281 A 200.77102 201.104 0 0 0 401.94336 274.95117 z M 375.19336 275.13477 A 200.77102 201.104 0 0 0 189.15234 475.69531 A 200.77102 201.104 0 0 0 376.61328 676.35547 A 199.54918 201.10775 0 0 1 190.37695 475.69531 A 199.54918 201.10775 0 0 1 375.19336 275.13477 z M 558.85547 582.74219 A 199.54918 201.10775 0 0 1 403.42188 676.3418 A 200.77102 201.104 0 0 0 559.5957 583.20703 L 558.85547 582.74219 z M 403.42188 676.3418 A 199.54918 201.10775 0 0 1 402.42578 676.4082 A 200.77102 201.104 0 0 0 403.42188 676.3418 z "
       style="opacity:1;fill:#ff5555;fill-opacity:1;stroke:#ffffff;stroke-width:14.271496;stroke-miterlimit:4;stroke-dasharray:14.271496,14.271496;stroke-dashoffset:3.71058896;stroke-opacity:1"
       id="circle3008" />
    <path
       transform="scale(0.26458333)"
       d="M 385.74805 240.72852 A 234.77584 234.77584 0 0 0 183.10742 357.4375 L 385.23828 476.33594 L 589.31836 358.04883 A 234.77584 234.77584 0 0 0 386.03516 240.72852 A 234.77584 234.77584 0 0 0 385.74805 240.72852 z M 182.80664 357.95703 A 234.77584 234.77584 0 0 0 182.66602 358.19922 L 379.73633 475.02539 L 184.5293 595.98242 A 234.77584 234.77584 0 0 0 386.03516 710.2793 A 234.77584 234.77584 0 0 0 588.48438 594.38672 L 395.11328 476.50977 L 589.92578 359.10742 A 234.77584 234.77584 0 0 0 589.71094 358.73242 L 385.23828 476.33789 L 182.80664 357.95703 z "
       style="opacity:1;fill:#666666;fill-opacity:1;stroke:#666666;stroke-width:2.88927;stroke-miterlimit:4;stroke-dasharray:none;stroke-opacity:1"
       id="path1659" />
    <circle
       cy="125.81174"
       cx="102.1384"
       id="circle1661"
       style="opacity:1;fill:#ffffff;fill-opacity:1;stroke:#ffffff;stroke-width:0.519827;stroke-miterlimit:4;stroke-dasharray:none;stroke-opacity:1"
       r="42.240086" />
    <g
       id="g1795"
       transform="translate(-2.5002121,-2.0278887)">
      <g
         id="g1742">
        <rect
           style="opacity:1;fill:#ff5555;fill-opacity:1;stroke:#ff5555;stroke-width:0.699398;stroke-miterlimit:4;stroke-dasharray:none;stroke-opacity:1"
           id="rect1665"
           width="1.800602"
           height="11.441602"
           x="103.73831"
           y="88.833595"
           ry="0.31762108" />
        <rect
           ry="0.31762108"
           y="155.40123"
           x="103.73831"
           height="11.441602"
           width="1.800602"
           id="rect1667"
           style="opacity:1;fill:#ff5555;fill-opacity:1;stroke:#ff5555;stroke-width:0.699398;stroke-miterlimit:4;stroke-dasharray:none;stroke-opacity:1" />
        <ellipse
           ry="1.5037508"
           rx="1.5037507"
           cy="128.33806"
           cx="104.63861"
           id="path1774"
           style="opacity:1;fill:#ff5555;fill-opacity:1;stroke:#ff5555;stroke-width:0.992498;stroke-miterlimit:4;stroke-dasharray:none;stroke-opacity:1" />
      </g>
      <g
         transform="rotate(30,104.63861,127.83821)"
         id="g1720">
        <rect
           style="opacity:1;fill:#333333;fill-opacity:1;stroke:#333333;stroke-width:0.646422;stroke-miterlimit:4;stroke-dasharray:none;stroke-opacity:1"
           id="rect1716"
           width="1.8535789"
           height="9.4945784"
           x="103.71182"
           y="88.807106"
           ry="0.26357135" />
        <rect
           ry="0.26357135"
           y="157.37474"
           x="103.71182"
           height="9.4945784"
           width="1.8535789"
           id="rect1718"
           style="opacity:1;fill:#333333;fill-opacity:1;stroke:#333333;stroke-width:0.646422;stroke-miterlimit:4;stroke-dasharray:none;stroke-opacity:1" />
      </g>
      <g
         transform="rotate(-30,104.63861,127.83821)"
         id="g1726">
        <rect
           style="opacity:1;fill:#333333;fill-opacity:1;stroke:#333333;stroke-width:0.646422;stroke-miterlimit:4;stroke-dasharray:none;stroke-opacity:1"
           id="rect1722"
           width="1.8535789"
           height="9.4945784"
           x="103.71182"
           y="88.807106"
           ry="0.26357135" />
        <rect
           ry="0.26357135"
           y="157.37474"
           x="103.71182"
           height="9.4945784"
           width="1.8535789"
           id="rect1724"
           style="opacity:1;fill:#333333;fill-opacity:1;stroke:#333333;stroke-width:0.646422;stroke-miterlimit:4;stroke-dasharray:none;stroke-opacity:1" />
      </g>
      <g
         id="g1738"
         transform="rotate(60,104.63861,127.83821)">
        <rect
           ry="0.26357135"
           y="88.807106"
           x="103.71182"
           height="9.4945784"
           width="1.8535789"
           id="rect1734"
           style="opacity:1;fill:#333333;fill-opacity:1;stroke:#333333;stroke-width:0.646422;stroke-miterlimit:4;stroke-dasharray:none;stroke-opacity:1" />
        <rect
           style="opacity:1;fill:#333333;fill-opacity:1;stroke:#333333;stroke-width:0.646422;stroke-miterlimit:4;stroke-dasharray:none;stroke-opacity:1"
           id="rect1736"
           width="1.8535789"
           height="9.4945784"
           x="103.71182"
           y="157.37474"
           ry="0.26357135" />
      </g>
      <g
         transform="rotate(90,104.63861,127.83821)"
         id="g1748">
        <rect
           ry="0.31762108"
           y="88.833595"
           x="103.73831"
           height="11.441602"
           width="1.800602"
           id="rect1744"
           style="opacity:1;fill:#ff5555;fill-opacity:1;stroke:#ff5555;stroke-width:0.699398;stroke-miterlimit:4;stroke-dasharray:none;stroke-opacity:1" />
        <rect
           style="opacity:1;fill:#ff5555;fill-opacity:1;stroke:#ff5555;stroke-width:0.699398;stroke-miterlimit:4;stroke-dasharray:none;stroke-opacity:1"
           id="rect1746"
           width="1.800602"
           height="11.441602"
           x="103.73831"
           y="155.40123"
           ry="0.31762108" />
      </g>
      <g
         transform="rotate(120,104.63861,127.83821)"
         id="g1823">
        <rect
           style="opacity:1;fill:#333333;fill-opacity:1;stroke:#333333;stroke-width:0.646422;stroke-miterlimit:4;stroke-dasharray:none;stroke-opacity:1"
           id="rect1819"
           width="1.8535789"
           height="9.4945784"
           x="103.71182"
           y="88.807106"
           ry="0.26357135" />
        <rect
           ry="0.26357135"
           y="157.37474"
           x="103.71182"
           height="9.4945784"
           width="1.8535789"
           id="rect1821"
           style="opacity:1;fill:#333333;fill-opacity:1;stroke:#333333;stroke-width:0.646422;stroke-miterlimit:4;stroke-dasharray:none;stroke-opacity:1" />
      </g>
    </g>
  </g>
</svg>
