<?xml version="1.0" encoding="UTF-8" standalone="no"?>
<svg
   xmlns:dc="http://purl.org/dc/elements/1.1/"
   xmlns:cc="http://creativecommons.org/ns#"
   xmlns:rdf="http://www.w3.org/1999/02/22-rdf-syntax-ns#"
   xmlns:svg="http://www.w3.org/2000/svg"
   xmlns="http://www.w3.org/2000/svg"
   xmlns:sodipodi="http://sodipodi.sourceforge.net/DTD/sodipodi-0.dtd"
   xmlns:inkscape="http://www.inkscape.org/namespaces/inkscape"
   inkscape:version="1.0 (4035a4f, 2020-05-01)"
   sodipodi:docname="logo_clockapp.svg"
   id="svg8"
   version="1.1"
   viewBox="0 0 210 297"
   height="297mm"
   width="210mm">
  <defs
     id="defs2" />
  <sodipodi:namedview
     inkscape:guide-bbox="true"
     inkscape:snap-grids="true"
     inkscape:object-nodes="false"
     inkscape:snap-intersection-paths="false"
     inkscape:snap-nodes="true"
     inkscape:object-paths="false"
     showguides="true"
     inkscape:window-maximized="0"
     inkscape:window-y="77"
     inkscape:window-x="0"
     inkscape:window-height="855"
     inkscape:window-width="1440"
     showgrid="true"
     inkscape:document-rotation="0"
     inkscape:current-layer="layer1"
     inkscape:document-units="mm"
     inkscape:cy="377.71828"
     inkscape:cx="-242.70805"
     inkscape:zoom="0.27769596"
     inkscape:pageshadow="2"
     inkscape:pageopacity="0.0"
     borderopacity="1.0"
     bordercolor="#666666"
     pagecolor="#ffffff"
     id="base" />
  <metadata
     id="metadata5">
    <rdf:RDF>
      <cc:Work
         rdf:about="">
        <dc:format>image/svg+xml</dc:format>
        <dc:type
           rdf:resource="http://purl.org/dc/dcmitype/StillImage" />
        <dc:title />
      </cc:Work>
    </rdf:RDF>
  </metadata>
  <g
     id="layer1"
     inkscape:groupmode="layer"
     inkscape:label="Layer 1">
    <path
       d="M 102.1384,43.809365 A 82.028697,84.530277 0 0 0 20.109519,128.3393 82.028697,84.530277 0 0 0 73.768821,207.65353 L 102.31894,93.043341 130.57768,207.62665 A 82.028697,84.530277 0 0 0 184.16727,128.3393 82.028697,84.530277 0 0 0 102.1384,43.809365 Z"
       style="opacity:1;fill:#ff5555;fill-opacity:1;stroke:#ff5555;stroke-width:0.94224903;stroke-miterlimit:4;stroke-dasharray:none;stroke-opacity:1;stroke-dashoffset:0"
       id="path1663" />
    <circle
       style="opacity:1;fill:#ff5555;fill-opacity:1;stroke:#ff5555;stroke-width:0.764453;stroke-miterlimit:4;stroke-dasharray:none;stroke-opacity:1"
       id="circle1817"
       cx="102.1384"
       cy="137.76669"
       r="62.117775" />
    <path
       id="circle3008"
       style="opacity:1;fill:#ff5555;fill-opacity:1;stroke:#ffffff;stroke-width:3;stroke-miterlimit:4;stroke-dasharray:3, 3;stroke-dashoffset:0.09;stroke-opacity:1"
       d="m 114.45092,83.629291 a 42.240874,41.983024 89.596354 0 1 39.7505,41.885349 42.240874,41.983024 89.596354 0 1 -39.20187,42.44416 42.240086,42.240086 0 0 0 39.45921,-42.44597 42.240086,42.240086 0 0 0 -40.00784,-41.883539 z m -5.25734,0.04944 a 42.240086,42.240086 0 0 0 -0.25361,0.01936 42.240874,41.983024 89.596354 0 1 0.25361,-0.01936 z m -0.25361,0.01936 A 42.240086,42.240086 0 0 0 69.980229,126.10799 42.240086,42.240086 0 0 0 109.98808,167.99152 42.240874,41.983024 89.596354 0 1 70.237573,126.10617 42.240874,41.983024 89.596354 0 1 108.93997,83.698088 Z" />
    <path
       id="path1659"
       style="opacity:1;fill:#666666;fill-opacity:1;stroke:#666666;stroke-width:2.88927;stroke-miterlimit:4;stroke-dasharray:none;stroke-opacity:1"
       d="M 385.74805 240.72852 A 234.77584 234.77584 0 0 0 151.25977 475.50391 A 234.77584 234.77584 0 0 0 386.03516 710.2793 A 234.77584 234.77584 0 0 0 588.48438 594.38672 L 395.11328 476.50977 L 589.92578 359.10742 A 234.77584 234.77584 0 0 0 589.71094 358.73242 L 384.93945 476.50977 L 589.31836 358.04883 A 234.77584 234.77584 0 0 0 386.03516 240.72852 A 234.77584 234.77584 0 0 0 385.74805 240.72852 z "
       transform="scale(0.26458333)" />
    <circle
       r="42.240086"
       style="opacity:1;fill:#ffffff;fill-opacity:1;stroke:#ffffff;stroke-width:0.519827;stroke-miterlimit:4;stroke-dasharray:none;stroke-opacity:1"
       id="circle1661"
       cx="102.1384"
       cy="125.81174" />
    <g
       transform="translate(-2.5002121,-2.0278887)"
       id="g1795">
      <g
         id="g1742">
        <rect
           ry="0.31762108"
           y="88.833595"
           x="103.73831"
           height="11.441602"
           width="1.800602"
           id="rect1665"
           style="opacity:1;fill:#ff5555;fill-opacity:1;stroke:#ff5555;stroke-width:0.699398;stroke-miterlimit:4;stroke-dasharray:none;stroke-opacity:1" />
        <rect
           style="opacity:1;fill:#ff5555;fill-opacity:1;stroke:#ff5555;stroke-width:0.699398;stroke-miterlimit:4;stroke-dasharray:none;stroke-opacity:1"
           id="rect1667"
           width="1.800602"
           height="11.441602"
           x="103.73831"
           y="155.40123"
           ry="0.31762108" />
        <ellipse
           style="opacity:1;fill:#ff5555;fill-opacity:1;stroke:#ff5555;stroke-width:0.992498;stroke-miterlimit:4;stroke-dasharray:none;stroke-opacity:1"
           id="path1774"
           cx="104.63861"
           cy="128.33806"
           rx="1.5037507"
           ry="1.5037508" />
      </g>
      <g
         id="g1720"
         transform="rotate(30,104.63861,127.83821)">
        <rect
           ry="0.26357135"
           y="88.807106"
           x="103.71182"
           height="9.4945784"
           width="1.8535789"
           id="rect1716"
           style="opacity:1;fill:#333333;fill-opacity:1;stroke:#333333;stroke-width:0.646422;stroke-miterlimit:4;stroke-dasharray:none;stroke-opacity:1" />
        <rect
           style="opacity:1;fill:#333333;fill-opacity:1;stroke:#333333;stroke-width:0.646422;stroke-miterlimit:4;stroke-dasharray:none;stroke-opacity:1"
           id="rect1718"
           width="1.8535789"
           height="9.4945784"
           x="103.71182"
           y="157.37474"
           ry="0.26357135" />
      </g>
      <g
         id="g1726"
         transform="rotate(-30,104.63861,127.83821)">
        <rect
           ry="0.26357135"
           y="88.807106"
           x="103.71182"
           height="9.4945784"
           width="1.8535789"
           id="rect1722"
           style="opacity:1;fill:#333333;fill-opacity:1;stroke:#333333;stroke-width:0.646422;stroke-miterlimit:4;stroke-dasharray:none;stroke-opacity:1" />
        <rect
           style="opacity:1;fill:#333333;fill-opacity:1;stroke:#333333;stroke-width:0.646422;stroke-miterlimit:4;stroke-dasharray:none;stroke-opacity:1"
           id="rect1724"
           width="1.8535789"
           height="9.4945784"
           x="103.71182"
           y="157.37474"
           ry="0.26357135" />
      </g>
      <g
         transform="rotate(60,104.63861,127.83821)"
         id="g1738">
        <rect
           style="opacity:1;fill:#333333;fill-opacity:1;stroke:#333333;stroke-width:0.646422;stroke-miterlimit:4;stroke-dasharray:none;stroke-opacity:1"
           id="rect1734"
           width="1.8535789"
           height="9.4945784"
           x="103.71182"
           y="88.807106"
           ry="0.26357135" />
        <rect
           ry="0.26357135"
           y="157.37474"
           x="103.71182"
           height="9.4945784"
           width="1.8535789"
           id="rect1736"
           style="opacity:1;fill:#333333;fill-opacity:1;stroke:#333333;stroke-width:0.646422;stroke-miterlimit:4;stroke-dasharray:none;stroke-opacity:1" />
      </g>
      <g
         id="g1748"
         transform="rotate(90,104.63861,127.83821)">
        <rect
           style="opacity:1;fill:#ff5555;fill-opacity:1;stroke:#ff5555;stroke-width:0.699398;stroke-miterlimit:4;stroke-dasharray:none;stroke-opacity:1"
           id="rect1744"
           width="1.800602"
           height="11.441602"
           x="103.73831"
           y="88.833595"
           ry="0.31762108" />
        <rect
           ry="0.31762108"
           y="155.40123"
           x="103.73831"
           height="11.441602"
           width="1.800602"
           id="rect1746"
           style="opacity:1;fill:#ff5555;fill-opacity:1;stroke:#ff5555;stroke-width:0.699398;stroke-miterlimit:4;stroke-dasharray:none;stroke-opacity:1" />
      </g>
      <g
         id="g1823"
         transform="rotate(120,104.63861,127.83821)">
        <rect
           ry="0.26357135"
           y="88.807106"
           x="103.71182"
           height="9.4945784"
           width="1.8535789"
           id="rect1819"
           style="opacity:1;fill:#333333;fill-opacity:1;stroke:#333333;stroke-width:0.646422;stroke-miterlimit:4;stroke-dasharray:none;stroke-opacity:1" />
        <rect
           style="opacity:1;fill:#333333;fill-opacity:1;stroke:#333333;stroke-width:0.646422;stroke-miterlimit:4;stroke-dasharray:none;stroke-opacity:1"
           id="rect1821"
           width="1.8535789"
           height="9.4945784"
           x="103.71182"
           y="157.37474"
           ry="0.26357135" />
      </g>
    </g>
  </g>
</svg>
